<svg xmlns="http://www.w3.org/2000/svg" width="36" height="31" viewBox="0 0 36 31" fill="none"><path d="M2.82512 12.2934C3.41392 12.4036 4.05767 12.4798 4.74365 12.5262C5.35342 12.5685 6.00986 12.5812 6.68759 12.5685H6.83146C7.51745 12.5599 8.22503 12.5516 8.84339 12.3103C9.54652 12.0349 10.3386 11.387 10.4148 10.6077L10.7155 7.62176C10.7241 7.56681 10.7282 7.51157 10.7282 7.47789C10.7368 7.27463 10.8257 7.09235 10.9864 6.93163C11.1135 6.80459 11.2872 6.69883 11.5117 6.60961C11.8674 6.46574 12.346 6.35967 12.9729 6.28345C14.0572 6.15642 15.2979 6.17326 16.0437 6.17769H16.0859C16.2723 6.17769 16.4333 6.18183 16.5223 6.17769C18.7924 6.13101 21.0837 6.24978 23.3244 6.54196C24.5823 6.70711 25.2473 7.2832 25.349 8.30809L25.5777 10.6122C25.6539 11.3871 26.4459 12.0394 27.149 12.3148C27.7632 12.5562 28.4746 12.5647 29.1565 12.5774L29.3004 12.5816C29.4528 12.5857 29.6011 12.5857 29.7536 12.5857C30.9395 12.5857 32.0195 12.5053 32.9682 12.3443L33.1673 12.3104C34.243 12.1071 34.9674 11.7809 35.4501 11.2855C35.789 10.9381 35.9754 10.4979 35.9964 10.0148C36.0091 9.65054 35.9878 9.26529 35.937 8.87566C35.8481 8.23191 35.6744 7.57957 35.4162 6.94442C35.1621 6.30481 34.8401 5.72041 34.4631 5.19962C33.8914 4.412 33.1502 3.7044 32.2606 3.09466C29.5034 1.20155 25.4418 0.193541 19.8466 0.0198172C17.1445 -0.0649725 14.2857 0.12145 11.1044 0.595912C8.63106 0.964317 6.02619 1.51914 3.74758 3.08197C2.85801 3.69175 2.11706 4.39901 1.54514 5.18693C0.787088 6.2289 0.24905 7.56726 0.0670823 8.86327C0.012132 9.25294 -0.00913875 9.63818 0.00356421 10.0024C0.0204042 10.4852 0.210959 10.9256 0.545686 11.2731C1.02488 11.76 1.74897 12.0861 2.82467 12.2935L2.82512 12.2934ZM1.10981 8.9985C1.26639 7.87198 1.73672 6.70711 2.39319 5.80075C2.8972 5.11033 3.55367 4.48372 4.34159 3.94576C6.44239 2.50582 8.9072 1.98465 11.258 1.63342C14.3709 1.16752 17.1663 0.981104 19.8088 1.06589C25.196 1.23518 29.0713 2.17971 31.6594 3.95431C32.447 4.49643 33.1038 5.12334 33.6078 5.80931C33.9339 6.25837 34.2134 6.76649 34.4338 7.32548C34.6539 7.87616 34.8108 8.45639 34.887 9.01121C34.9337 9.34151 34.9505 9.66353 34.9378 9.9684C34.9293 10.1885 34.8448 10.3835 34.6923 10.5445C34.3662 10.8792 33.8199 11.1079 32.9729 11.2686L32.7909 11.3026C31.7915 11.4719 30.6225 11.5481 29.3178 11.5227L29.1781 11.5185C28.5597 11.51 27.9754 11.5017 27.539 11.328C27.0477 11.1333 26.6539 10.7351 26.6327 10.5019L26.404 8.19785C26.3151 7.31691 25.8196 5.79627 23.4648 5.4914C21.5036 5.23733 19.5006 5.10586 17.5141 5.10586C17.1753 5.10586 16.8408 5.11 16.5061 5.11856H16.0571C15.2904 5.11 14.0029 5.09729 12.8551 5.22876C12.131 5.31355 11.5635 5.44059 11.1186 5.627C10.767 5.77087 10.4834 5.94902 10.2544 6.17326C9.90286 6.51626 9.70374 6.94817 9.67833 7.41852L9.36488 10.4975C9.34361 10.7262 8.94979 11.1286 8.45852 11.3191C8.02217 11.4884 7.43781 11.497 6.81945 11.5055H6.67558C6.02326 11.5182 5.39666 11.5014 4.81611 11.4633C4.17237 11.421 3.57085 11.3489 3.02457 11.2473C2.17312 11.0863 1.62691 10.8535 1.30518 10.5188C1.1486 10.3578 1.06795 10.1672 1.05968 9.94711C1.04638 9.65079 1.06352 9.32877 1.1099 8.99847L1.10981 8.9985Z" fill="white"></path><path d="M33.3233 21.891C33.1667 20.8153 33.0098 19.7394 32.8659 18.6637C32.6414 16.9738 31.6124 15.7838 29.9606 15.3134C28.9866 15.0381 28.258 14.7882 27.6057 14.5128C27.1948 14.3391 26.8096 14.1273 26.4579 13.8859C26.3141 13.7884 26.1613 13.6954 26.0089 13.6106C25.4328 13.293 24.0818 12.3866 23.9208 10.7771L23.7261 8.82866C23.6921 8.49393 23.4381 8.23159 23.1078 8.18905C20.952 7.90957 18.7368 7.79081 16.5556 7.83748H16.3991L15.9925 7.83335C15.7979 7.83335 15.5775 7.82921 15.3402 7.82921C14.4466 7.82921 13.7307 7.86319 13.159 7.92671C13.0574 7.93941 12.9685 7.95212 12.8878 7.96068C12.5658 8.00736 12.3162 8.27 12.2822 8.59586L12.0662 10.7687C11.9052 12.3824 10.5501 13.2888 9.97398 13.6064C9.8174 13.6953 9.66053 13.7884 9.51222 13.8903L9.38104 13.9792C8.52135 14.5382 7.50472 14.9533 6.18768 15.2794C4.55277 15.6818 3.5279 16.6984 3.21857 18.2187C3.08296 18.8919 2.9899 19.5741 2.90511 20.2347C2.867 20.51 2.83303 20.7854 2.79078 21.0607L2.71456 21.5774C2.58339 22.4711 2.45635 23.369 2.33345 24.2626C2.31661 24.3938 2.29534 24.5208 2.27407 24.6523C2.19371 25.1731 2.10892 25.7111 2.16831 26.2914C2.41381 28.6209 4.27742 30.3108 6.59831 30.3108H17.949C17.9658 30.3108 17.983 30.3149 17.9998 30.3149H22.9046C25.0223 30.3149 27.1358 30.3149 29.2534 30.3108C29.6854 30.3108 30.1131 30.2641 30.5196 30.171C32.2604 29.7772 33.6834 28.1127 33.8232 26.2914C33.8699 25.6899 33.7892 25.1224 33.7089 24.5761L33.6666 24.2966C33.5561 23.4918 33.4418 22.6912 33.3233 21.8909L33.3233 21.891ZM32.7726 26.2066C32.6668 27.5621 31.5781 28.8452 30.2907 29.1376C29.9559 29.2139 29.6088 29.252 29.2531 29.252C26.3221 29.2605 23.3872 29.2561 20.4565 29.2561H18.0549C18.038 29.2561 18.0209 29.252 18.0041 29.252H6.60272C4.83251 29.252 3.40936 27.9603 3.22293 26.1812C3.17625 25.7366 3.24834 25.2875 3.32043 24.813C3.3417 24.6774 3.36267 24.5418 3.37981 24.4021C3.50271 23.5084 3.62975 22.6192 3.76092 21.7254L3.83714 21.2046C3.87939 20.9251 3.91336 20.6456 3.95147 20.3658C4.03626 19.7221 4.12519 19.0571 4.25223 18.4219C4.48089 17.3037 5.1967 16.6091 6.44197 16.3001C7.87774 15.9444 8.99156 15.4867 9.95729 14.8601C10.0081 14.8262 10.0589 14.7925 10.1097 14.7585C10.2282 14.6737 10.3552 14.5975 10.4826 14.5299C11.2067 14.136 12.9051 12.9839 13.1211 10.8706L13.3117 8.97749C13.8411 8.91811 14.5061 8.88856 15.3445 8.88856C15.5773 8.88856 15.7936 8.8927 16.0223 8.8927L16.4034 8.89684H16.5853C18.6227 8.85459 20.6895 8.95622 22.7055 9.20615L22.8707 10.8833C23.0825 12.9925 24.7765 14.1446 25.5009 14.5384C25.6238 14.6061 25.7464 14.6782 25.861 14.7585C26.2676 15.038 26.7166 15.2838 27.1952 15.4871C27.8898 15.7837 28.6564 16.0419 29.6771 16.3341C30.9306 16.6898 31.655 17.5199 31.8244 18.8032C31.9682 19.8875 32.1251 20.9676 32.2817 22.0474C32.396 22.8436 32.5145 23.6442 32.6247 24.4405L32.667 24.7285C32.739 25.2367 32.8108 25.7194 32.7727 26.2066L32.7726 26.2066Z" fill="white"></path><path d="M18.0088 14.4535H17.9621C14.9339 14.4789 12.4815 16.9226 12.4942 19.9042C12.4983 21.374 13.0786 22.7545 14.1206 23.7838C15.154 24.8045 16.5177 25.3635 17.9748 25.3635H18.0129C19.491 25.3549 20.8759 24.7791 21.9135 23.7457C22.9511 22.7081 23.5186 21.3359 23.5059 19.8746C23.4932 18.4175 22.9088 17.0538 21.8583 16.0248C20.821 15.0124 19.4531 14.4535 18.0088 14.4535ZM21.1684 23.0005C20.3296 23.8348 19.2073 24.3007 18.0088 24.3093H17.9748C16.8016 24.3093 15.6961 23.8561 14.866 23.0345C14.0231 22.2043 13.5572 21.0906 13.5531 19.9003C13.5445 17.4987 15.5269 15.5294 17.9749 15.5125H18.013C19.182 15.5125 20.2872 15.9616 21.1259 16.7832C21.9729 17.6134 22.443 18.7144 22.456 19.8834C22.456 21.0607 22.0028 22.166 21.1685 23.0006L21.1684 23.0005Z" fill="white"></path></svg>