<svg xmlns="http://www.w3.org/2000/svg" width="36" height="36" viewBox="0 0 36 36" fill="none"><path d="M5.35722 2.39546e-05C4.08197 2.39546e-05 3.03311 1.05804 3.03311 2.37684V10.6668H2.18248C1.96982 10.6668 1.75716 10.7101 1.55927 10.7678C1.48826 10.7974 1.41761 10.8111 1.34661 10.8407C1.09107 10.9565 0.850639 11.1307 0.652035 11.3334C0.552908 11.4344 0.453089 11.5361 0.368377 11.6671C0.141662 12.0293 0 12.4495 0 12.913V15.551V15.5943V31.0725V31.1158V33.7537C0 34.4492 0.311426 35.0726 0.793688 35.4925H0.807397C0.86434 35.5357 0.906523 35.5794 0.963465 35.6234C0.963465 35.6234 0.977525 35.609 0.977525 35.6234C1.03412 35.6523 1.09106 35.6959 1.148 35.7244C1.148 35.7388 1.16171 35.7244 1.16171 35.7244C1.21865 35.7677 1.27559 35.7973 1.33218 35.8258H1.34624C1.47384 35.8691 1.6155 35.9127 1.74273 35.9423C1.75679 35.9567 1.77156 35.9423 1.77156 35.9423C1.84256 35.9567 1.89915 35.9856 1.95539 35.9856H1.98422C2.05522 36 2.12587 36 2.18281 36H2.21163H33.8168C34.4829 36 35.0928 35.6808 35.504 35.1887C35.8155 34.7973 36 34.2898 36 33.7541V31.1161V31.0729V15.5947V15.5514V12.9134C36 12.3049 35.7585 11.7396 35.362 11.3341H35.348C35.2488 11.2324 35.1494 11.131 35.0362 11.0441C35.0362 11.0441 35.0225 11.0581 35.0225 11.0441C34.9086 10.9712 34.7958 10.8987 34.6682 10.841H34.6541C34.5831 10.8114 34.5265 10.7829 34.4696 10.7681H34.4559C34.3849 10.754 34.3142 10.7393 34.2569 10.7248C34.2432 10.7108 34.2432 10.7248 34.2432 10.7248C34.1722 10.7108 34.1016 10.6815 34.0443 10.6815H34.0306C33.9596 10.6675 33.8889 10.6675 33.8175 10.6675L32.9662 10.666V2.37681C32.9662 1.05801 31.9177 0 30.6561 0L5.35722 2.39546e-05ZM5.35722 0.826092H30.6563C31.4922 0.826092 32.1586 1.50715 32.1586 2.37687V17.3038L23.4705 22.956H23.4565V22.9704L23.4276 22.9845L19.7854 25.3469C19.431 25.5785 18.9772 25.7383 18.4813 25.7957C18.3252 25.8252 18.1695 25.8252 17.999 25.8252C17.3333 25.8252 16.6812 25.6654 16.2137 25.3469L12.5567 22.9701L12.5286 22.9557L3.84122 17.3189V2.37727C3.84122 1.50755 4.50731 0.826493 5.35727 0.826493L5.35722 0.826092ZM7.66766 4.5073C7.455 4.5358 7.28453 4.75332 7.31335 4.97083C7.34217 5.188 7.56819 5.34779 7.78085 5.31821H14.7117C14.9244 5.33264 15.1223 5.13064 15.1223 4.91276C15.1223 4.69488 14.9237 4.5073 14.7117 4.5073H7.78111H7.6964H7.66758H7.66766ZM7.69649 8.4782C7.49754 8.50778 7.31335 8.71051 7.34217 8.92767C7.35588 9.14483 7.56854 9.3187 7.7812 9.30463H28.2184C28.4311 9.30463 28.629 9.10154 28.629 8.88402C28.629 8.66614 28.4304 8.4782 28.2184 8.4782H7.7812H7.73902H7.69649ZM2.18288 11.478H3.03351V16.7822L0.794787 15.3332V12.9123C0.794787 12.8109 0.808495 12.7096 0.822907 12.6227C0.86579 12.434 0.936791 12.2601 1.03557 12.1155C1.09216 12.0285 1.14945 11.956 1.22011 11.8976C1.2767 11.8251 1.34771 11.7818 1.43277 11.7237C1.50377 11.6804 1.57442 11.6368 1.65913 11.5935C1.82855 11.5358 1.99868 11.4781 2.18287 11.4781L2.18288 11.478ZM32.9665 11.478H33.8171C33.9022 11.478 34.0017 11.4924 34.0867 11.5076H34.1008C34.1855 11.5216 34.2706 11.5649 34.3556 11.5945C34.866 11.8117 35.2063 12.3185 35.2063 12.9133V15.319L32.9668 16.7825V11.4781L32.9665 11.478ZM7.69712 12.4491C7.49817 12.478 7.31398 12.6958 7.3428 12.8979C7.35651 13.1157 7.56917 13.29 7.78183 13.2748H28.2191C28.4317 13.2748 28.6296 13.0872 28.6296 12.8694C28.6296 12.6515 28.431 12.4487 28.2191 12.4487L7.78183 12.4491H7.73965H7.69711H7.69712ZM0.794688 16.2894L3.16101 17.8258L3.17507 17.8399C3.18913 17.8539 3.20389 17.8694 3.23166 17.8694L11.6216 23.3327L0.794702 30.3759L0.794688 16.2894ZM35.2065 16.2894V30.375L24.3778 23.3329L26.5466 21.9127L32.7685 17.8697C32.7974 17.8545 32.8251 17.8401 32.8395 17.8264L35.2065 16.2894ZM7.73968 16.4341C7.52702 16.4341 7.34319 16.652 7.35654 16.8547C7.3706 17.0726 7.5692 17.2605 7.78186 17.2468H28.2191C28.4318 17.2468 28.6297 17.0581 28.6297 16.841C28.6297 16.6238 28.4311 16.4352 28.2191 16.4352L7.78186 16.4348C7.7678 16.4341 7.75374 16.4341 7.73968 16.4341L7.73968 16.4341ZM12.3598 23.8258L15.7901 26.0428C16.4281 26.4634 17.2077 26.6369 18.0007 26.6369C18.1996 26.6369 18.3979 26.6225 18.5821 26.6074C19.1772 26.5349 19.7294 26.3466 20.2116 26.0421L23.6412 23.825L35.2068 31.3318V33.7527C35.2068 34.2451 34.952 34.6797 34.5836 34.9409C34.371 35.0855 34.1017 35.1725 33.8177 35.1876H2.21252H2.18369C2.09863 35.1876 2.01322 35.1732 1.92886 35.1581H1.90004C1.81497 35.144 1.74397 35.1 1.65855 35.0711C1.57384 35.0278 1.48878 34.9842 1.41777 34.9409C1.34677 34.8828 1.27612 34.8395 1.21918 34.7667C1.14817 34.7093 1.09123 34.6364 1.03464 34.5495C0.892985 34.3323 0.807923 34.0567 0.807923 33.7527V31.3469L12.3598 23.8258Z" fill="white"></path></svg>