<svg xmlns="http://www.w3.org/2000/svg" width="36" height="36" viewBox="0 0 36 36" fill="none"><path d="M9.28211 36C7.79019 36 6.35954 35.4073 5.30458 34.3524C4.24962 33.2974 3.65695 31.8668 3.65695 30.3748C3.65695 28.8829 4.2496 27.4523 5.30458 26.3973C6.35955 25.3423 7.79019 24.7497 9.28211 24.7497C10.774 24.7497 12.2047 25.3423 13.2597 26.3973C14.3146 27.4523 14.9073 28.8829 14.9073 30.3748C14.9073 31.8668 14.3146 33.2974 13.2597 34.3524C12.2047 35.4073 10.774 36 9.28211 36ZM9.28211 25.8747C8.08855 25.8747 6.94391 26.3488 6.10014 27.1929C5.2561 28.0366 4.78198 29.1813 4.78198 30.3748C4.78198 31.5684 5.2561 32.713 6.10014 33.5568C6.94391 34.4008 8.08855 34.875 9.28211 34.875C10.4757 34.875 11.6203 34.4008 12.4641 33.5568C13.3081 32.713 13.7822 31.5684 13.7822 30.3748C13.7822 29.1813 13.3081 28.0366 12.4641 27.1929C11.6203 26.3488 10.4757 25.8747 9.28211 25.8747Z" fill="white"></path><path d="M26.7195 36C25.2276 36 23.7969 35.4073 22.7419 34.3524C21.687 33.2974 21.0943 31.8668 21.0943 30.3748C21.0943 28.8829 21.687 27.4523 22.7419 26.3973C23.7969 25.3423 25.2276 24.7497 26.7195 24.7497C28.2114 24.7497 29.6421 25.3423 30.697 26.3973C31.752 27.4523 32.3446 28.8829 32.3446 30.3748C32.3446 31.8668 31.752 33.2974 30.697 34.3524C29.642 35.4073 28.2114 36 26.7195 36ZM26.7195 25.8747C25.5259 25.8747 24.3813 26.3488 23.5375 27.1929C22.6935 28.0366 22.2193 29.1813 22.2193 30.3748C22.2193 31.5684 22.6935 32.713 23.5375 33.5568C24.3813 34.4008 25.5259 34.875 26.7195 34.875C27.913 34.875 29.0577 34.4008 29.9015 33.5568C30.7455 32.713 31.2196 31.5684 31.2196 30.3748C31.2196 29.1813 30.7455 28.0366 29.9015 27.1929C29.0577 26.3488 27.913 25.8747 26.7195 25.8747Z" fill="white"></path><path d="M3.93789 30.0933H0.562788C0.25215 30.0933 0.000271104 29.8414 0.000271104 29.5307V9.28015C0.000271104 8.96951 0.25215 8.71763 0.562788 8.71763H23.9069C24.0561 8.71763 24.1992 8.7769 24.3047 8.88237C24.4101 8.98784 24.4694 9.13098 24.4694 9.28015V25.5931C24.4694 25.9038 24.2175 26.1556 23.9069 26.1556C23.5963 26.1556 23.3444 25.9038 23.3444 25.5931V9.84266H1.1253V28.9682H3.93789C4.24852 28.9682 4.5004 29.2201 4.5004 29.5307C4.5004 29.8414 4.24852 30.0933 3.93789 30.0933Z" fill="white"></path><path d="M21.3759 30.0933H14.6257C14.3151 30.0933 14.0632 29.8414 14.0632 29.5307C14.0632 29.2201 14.3151 28.9682 14.6257 28.9682H21.3759C21.6865 28.9682 21.9384 29.2201 21.9384 29.5307C21.9384 29.8414 21.6865 30.0933 21.3759 30.0933Z" fill="white"></path><path d="M35.4388 30.0933H32.0637C31.7531 30.0933 31.5012 29.8414 31.5012 29.5307C31.5012 29.2201 31.7531 28.9682 32.0637 28.9682H34.8763V19.6864C34.8763 16.8402 32.2465 14.3425 29.2511 14.3425H24.4697V25.8744C24.4697 26.185 24.2179 26.4369 23.9072 26.4369C23.5966 26.4369 23.3447 26.185 23.3447 25.8744V13.7806C23.3447 13.47 23.5966 13.2181 23.9072 13.2181H29.2511C32.8485 13.2181 36.0013 16.2416 36.0013 19.6867V29.5304C36.0013 29.6796 35.9421 29.8227 35.8366 29.9282C35.7311 30.0337 35.588 30.0929 35.4388 30.0929V30.0933Z" fill="white"></path><path d="M12.0941 26.4372C11.7834 26.4372 11.5315 26.1853 11.5315 25.8747V9.28079C11.5315 8.97015 11.7834 8.71828 12.0941 8.71828C12.4047 8.71828 12.6566 8.97015 12.6566 9.28079V25.8747C12.6566 26.0239 12.5973 26.167 12.4918 26.2725C12.3864 26.378 12.2432 26.4372 12.0941 26.4372Z" fill="white"></path><path d="M18.4534 9.84266H12.0942C11.7921 9.84292 11.5437 9.6046 11.5317 9.30275C11.5317 9.14254 11.4219 5.3202 15.0924 1.84668C16.7912 0.234987 19.0862 -0.381017 21.0944 0.234987C21.8249 0.434632 22.4885 0.827134 23.015 1.37159C23.5416 1.91577 23.9118 2.59203 24.0871 3.32883C24.4555 5.03322 24.1238 6.63912 23.1477 7.8458C22.1015 9.13683 20.439 9.84266 18.4534 9.84266ZM12.6876 8.71763H18.4534C20.0932 8.71763 21.446 8.15512 22.2617 7.15114C23.0183 6.2117 23.2714 4.94324 22.9761 3.57919C22.8422 3.03651 22.5652 2.54004 22.1738 2.14127C21.7825 1.74249 21.2911 1.45622 20.7514 1.31209C19.1427 0.81436 17.2724 1.33168 15.8688 2.66213C13.3571 5.03877 12.8086 7.62082 12.6876 8.7177L12.6876 8.71763Z" fill="white"></path><path d="M5.7688 9.84266C3.78038 9.84266 2.11244 9.13679 1.08583 7.85701C0.109946 6.64764 -0.222035 5.04443 0.146397 3.34004C0.319922 2.60099 0.689325 1.92269 1.21621 1.37625C1.74281 0.829551 2.40701 0.435269 3.13905 0.234884C5.13595 -0.381119 7.42825 0.234884 9.12712 1.84355C12.8003 5.32286 12.6569 9.14469 12.6569 9.30541C12.6433 9.60601 12.3955 9.84282 12.0944 9.84257L5.7688 9.84266ZM4.71988 1.12398C4.29649 1.12298 3.87559 1.18551 3.47103 1.30956C2.93112 1.45346 2.43992 1.73999 2.04841 2.13874C1.65716 2.53752 1.37995 3.03401 1.24629 3.57641C0.950969 4.94355 1.2041 6.21194 1.96901 7.15137C2.77615 8.15535 4.12921 8.71787 5.76873 8.71787H11.5036C11.3939 7.6237 10.8653 5.04191 8.35355 2.6623C7.38222 1.70602 6.08265 1.15578 4.71982 1.1239L4.71988 1.12398Z" fill="white"></path></svg>