<svg xmlns="http://www.w3.org/2000/svg" width="36" height="32" viewBox="0 0 36 32" fill="none"><path d="M21.1943 21.6532C21.1943 24.1048 23.1907 26.0994 25.6444 26.0994C28.0987 26.0994 30.0954 24.1048 30.0954 21.6532C30.0954 19.2017 28.0987 17.207 25.6444 17.207C23.1907 17.207 21.1943 19.2019 21.1943 21.6532ZM28.8724 21.6532C28.8724 23.4311 27.4244 24.8775 25.6447 24.8775C23.8653 24.8775 22.4177 23.4313 22.4177 21.6532C22.4177 19.8754 23.8651 18.429 25.6447 18.429C27.4242 18.429 28.8724 19.8755 28.8724 21.6532Z" fill="white"></path><path d="M5.905 21.6532C5.905 24.1048 7.90139 26.0994 10.3551 26.0994C12.8088 26.0994 14.8052 24.1048 14.8052 21.6532C14.8052 19.2017 12.8088 17.207 10.3551 17.207C7.90139 17.207 5.905 19.2019 5.905 21.6532ZM13.5824 21.6532C13.5824 23.4311 12.135 24.8775 10.3553 24.8775C8.57593 24.8775 7.12826 23.4313 7.12826 21.6532C7.12826 19.8754 8.57571 18.429 10.3553 18.429C12.135 18.429 13.5824 19.8755 13.5824 21.6532Z" fill="white"></path><path d="M28.3744 29.9968C28.2077 29.8303 27.9597 29.7743 27.737 29.853C23.7806 31.256 19.9081 28.0443 18.4278 26.5975C18.19 26.3653 17.81 26.3653 17.5723 26.5975C16.091 28.0443 12.2188 31.2574 8.26167 29.8539C8.03982 29.7743 7.7918 29.8306 7.62484 29.9974L6.66459 30.9565C6.42567 31.1952 6.42567 31.5823 6.6643 31.821C6.78376 31.9403 6.94048 31.9997 7.09691 31.9997C7.25363 31.9997 7.41007 31.9403 7.52924 31.8213L8.22523 31.1268C11.2552 32.0157 14.7705 30.8466 18.0004 27.8769C21.2303 30.8459 24.7455 32.016 27.7741 31.1259L28.47 31.821C28.709 32.0597 29.0961 32.0597 29.335 31.821C29.5739 31.5823 29.5739 31.1955 29.335 30.9568L28.3744 29.9968Z" fill="white"></path><path d="M35.8202 24.4759L35.1242 23.7814C36.0523 20.5992 34.6515 16.7639 31.3212 13.4364C30.9788 13.0935 30.5228 12.9045 30.0379 12.9045H30.0376C29.5532 12.9048 29.097 13.0935 28.7537 13.4362C28.0457 14.1435 28.0457 15.2944 28.7537 16.0014C31.5755 18.8208 31.7797 22.7082 29.24 25.2457C26.3984 28.0851 22.533 27.0362 19.9629 24.7364C18.6458 23.558 17.3232 23.559 16.0319 24.7418C13.4917 27.0669 9.63945 28.1232 6.75991 25.2457C5.48452 23.9714 4.87158 22.3874 4.98823 20.6653C5.10086 19.0003 5.9029 17.3442 7.24689 16.0019C7.95397 15.2943 7.95397 14.1434 7.24689 13.437C6.90387 13.094 6.4482 12.905 5.96298 12.905H5.96269C5.47774 12.9053 5.02151 13.0945 4.67936 13.437C1.34846 16.7649 -0.0526078 20.5993 0.875175 23.7811L0.179185 24.4765C-0.0597285 24.7152 -0.0597285 25.102 0.179185 25.3407C0.418099 25.5794 0.80521 25.5794 1.04413 25.3407L2.00439 24.3813C2.17106 24.2148 2.22709 23.967 2.14831 23.7445C1.15456 20.949 2.42449 17.4184 5.54489 14.3009C5.76845 14.0773 6.15811 14.077 6.38253 14.3012C6.6132 14.5317 6.61292 14.9073 6.38253 15.1384C4.82987 16.6894 3.9015 18.6232 3.76891 20.5829C3.62982 22.6384 4.38555 24.6011 5.89585 26.1102C8.83764 29.05 13.3461 28.8584 16.8593 25.6433C17.6932 24.8794 18.2917 24.8806 19.1481 25.647C21.045 27.3441 23.1628 28.1997 25.1743 28.1997C26.9843 28.1997 28.7082 27.5066 30.1059 26.1102C33.147 23.0723 32.9422 18.457 29.6195 15.1374C29.5077 15.0257 29.4463 14.8771 29.4463 14.7191C29.4463 14.5611 29.5077 14.4122 29.6192 14.3011C29.8507 14.0706 30.2268 14.0701 30.4574 14.3008C33.5776 17.4183 34.847 20.9491 33.8529 23.7458C33.7739 23.9683 33.8302 24.2158 33.9971 24.3827L34.9574 25.3418C35.196 25.5796 35.5834 25.5802 35.8223 25.3415C36.0596 25.1016 36.0596 24.7146 35.8204 24.4759L35.8202 24.4759Z" fill="white"></path><path d="M18.0007 17.9619C20.5745 17.9619 26.4594 13.4524 27.478 8.00187C27.7753 6.41019 27.6649 3.91825 26.3759 2.13219C25.5297 0.959692 24.3274 0.258028 22.8006 0.047492C20.8503 -0.220486 19.1875 0.665859 17.9964 2.59458C16.783 0.639451 15.1595 -0.219351 13.2001 0.047492C11.6736 0.258631 10.4705 0.959692 9.62465 2.13248C8.33623 3.91883 8.22555 6.41048 8.52277 8.00187C9.54128 13.4524 15.4266 17.9619 18.0008 17.9619H18.0007ZM10.6167 2.84615C11.2592 1.95468 12.185 1.4207 13.3671 1.2576C13.5446 1.23288 13.7195 1.22066 13.887 1.22066C15.3578 1.22066 16.5222 2.17832 17.4466 4.14851C17.5479 4.36335 17.7635 4.50004 18.0004 4.50004H18.0035C18.2422 4.4989 18.4578 4.35909 18.5568 4.14197C19.5386 1.98766 20.9038 1.01522 22.6326 1.25762C23.8144 1.42045 24.7394 1.95499 25.3825 2.84559C26.4451 4.31817 26.527 6.42251 26.2747 7.77659C25.3924 12.499 20.1172 16.7393 18.0002 16.7393C15.8827 16.7393 10.6068 12.4991 9.72504 7.77659C9.47247 6.42309 9.55439 4.31875 10.617 2.84617L10.6167 2.84615Z" fill="white"></path></svg>