<svg width="130" height="71" viewBox="0 0 130 71" fill="none" xmlns="http://www.w3.org/2000/svg">
<g clip-path="url(#clip0_4_382)">
<path d="M28.23 25.8081C26.13 28.495 22.89 32.798 18.73 39.101C20.1 39.101 21.39 39.2525 22.63 39.4142C23.87 39.5758 24.28 40.1313 24.28 40.798C24.28 41.2222 23.28 42.202 22.78 42.6364C22.23 43.2424 22.18 43.8283 21.39 43.8283C21.1315 43.8533 20.8709 43.8152 20.63 43.7172C19.94 43.7172 18.86 43.6465 17.55 43.6465H15.84C12.44 48.9899 6.66 58.0808 6.34 58.6667C5.92 59.4344 5.58 59.9394 4.55 59.9394C4.21354 59.9248 3.87896 59.8809 3.55 59.8081C2.05 59.596 1.37 59.3232 1.37 58.5859C1.39659 58.2385 1.4776 57.8975 1.61 57.5758C2.16 55.9899 7.21 48.5455 10.44 43.8384C6.68 44.0303 3.1 44.2929 1.97 44.394C1.57385 44.5497 1.16106 44.6582 0.74 44.7172C0.26 44.7172 0 44.2626 0 43.7879C0.00445327 43.6237 0.0418769 43.4622 0.11 43.3131C0.422341 42.5947 0.818477 41.9165 1.29 41.2929C1.70822 40.5369 2.36725 39.946 3.16 39.6162C6.68818 39.193 10.2371 38.9705 13.79 38.9495C16.4266 34.8067 19.2876 30.8141 22.36 26.9899C18.3731 27.669 14.3325 27.9734 10.29 27.899C2.79 27.899 0.58 26.0101 0.58 23.5152C0.58 21.9192 2.32 20.4041 5.05 20.4041C6.45 20.4041 6.89 20.6667 6.89 20.8586C6.89 21.0505 6.71 21.0909 6.45 21.0909C6.05372 21.0655 5.66093 21.1794 5.33831 21.4132C5.01568 21.647 4.78309 21.9864 4.68 22.3737C4.68 22.798 6.34 23.5657 12.81 23.5657C17.522 23.592 22.229 23.2543 26.89 22.5556C29.36 20.4748 31.68 19.0707 34.89 19.0707C35.3202 19.0355 35.7523 19.1095 36.147 19.2859C36.5417 19.4623 36.8864 19.7356 37.15 20.0808C37.3947 20.3693 37.5602 20.7176 37.63 21.0909C37.6 22.5152 34.25 25.3839 28.23 25.8081ZM33.12 21.2121C33.4674 21.1072 33.8026 20.9649 34.12 20.7879C33.7768 20.9043 33.4426 21.0461 33.12 21.2121Z" fill="white"/>
<path d="M39.62 47.6061C39.4114 47.9617 39.086 48.2322 38.7004 48.3706C38.3149 48.509 37.8935 48.5065 37.5095 48.3636C37.1255 48.2208 36.8032 47.9465 36.5987 47.5885C36.3942 47.2304 36.3203 46.8114 36.39 46.404C36.5577 44.8426 37.2411 43.3838 38.33 42.2626V42.202C36.96 42.3131 29.83 49.8889 28.52 51.2929C26.5522 53.4793 24.6997 55.7686 22.97 58.1515C22.62 58.6364 21.97 59.2929 21.36 59.2929C20.5031 59.1379 19.6824 58.8227 18.94 58.3636C18.76 58.2626 18.76 58.101 18.76 57.9394C18.76 57.0101 19.76 55.6869 20.34 54.6768C22.6 50.6364 24.91 46.7778 27.23 42.8687C27.9189 41.5639 28.6905 40.3054 29.54 39.101C30.0617 38.5757 30.6884 38.1688 31.3782 37.9075C32.0679 37.6463 32.8049 37.5366 33.54 37.5859C34.07 37.5859 34.17 38.1717 34.17 38.596C34.17 39.8384 31.54 43.4849 30.78 44.7273C33.25 41.9091 37.36 37.6566 41.36 37.6566C41.6813 37.6355 42.0034 37.6821 42.3059 37.7936C42.6084 37.9051 42.8846 38.079 43.1169 38.3041C43.3492 38.5293 43.5326 38.8009 43.6554 39.1015C43.7782 39.4022 43.8376 39.7254 43.83 40.0505C43.78 41.596 40.65 46.2222 39.62 47.6061Z" fill="white"/>
<path d="M54.44 43.8283C53.59 43.8283 53.49 43.4041 53.49 42.6364C53.4944 42.4007 53.5279 42.1666 53.59 41.9394C52.8416 42.2024 52.1213 42.5408 51.44 42.9495C50.57 43.4344 47 45.8485 47 46.8283C47 47.0404 47.43 47.0404 47.53 47.0404C48.95 47.0404 50.14 46.1616 51.48 46.1616C51.6555 46.1511 51.8315 46.1716 52 46.2222C52.5696 46.6512 52.9701 47.2704 53.13 47.9697C53.13 48.4243 52.56 48.8788 52.21 49.1717C51.4281 49.6378 50.6003 50.0204 49.74 50.3131C48.66 50.9192 44.19 53.4243 44.19 54.6162C44.19 56.4748 46.29 56.6364 47.69 56.6364C51.53 56.6364 55.19 52.9697 57.61 51.1414C57.7815 50.9967 57.989 50.9024 58.21 50.8687C58.9 50.8687 58.9 52.495 58.9 52.9697C58.9266 53.4535 58.8725 53.9384 58.74 54.4041C58.4746 54.896 58.106 55.3234 57.66 55.6566C55.09 57.7778 51.23 60.3333 47 60.3333C43.87 60.3333 39.77 59.3232 39.77 55.4445C39.77 52.495 42.32 50.8182 44.77 49.8889C43.33 49.2222 43.2 48.1818 43.2 46.7778C43.2 41.5455 51.93 37.798 56.4 37.798C57.32 37.798 59.06 38.2727 59.06 39.4142C58.982 40.6025 58.4628 41.7172 57.6063 42.5356C56.7497 43.354 55.6189 43.8156 54.44 43.8283Z" fill="white"/>
<path d="M79.09 39.0707C79.0843 39.8683 78.8668 40.6497 78.46 41.3333C77.3677 42.5307 75.859 43.2547 74.25 43.3535C73.38 43.3535 73.43 42.9192 73.06 42.7374C72.9732 42.6873 72.9025 42.6131 72.8564 42.5235C72.8103 42.4339 72.7907 42.3329 72.8 42.2323C72.8 41.7778 73.2 41.697 73.43 40.9596C68.49 41.2222 63.43 45.4243 63.43 46.303C63.43 47.1818 67.85 46.9899 72.37 49.1212C73.0361 49.422 73.6116 49.8953 74.0384 50.493C74.4651 51.0908 74.7278 51.7919 74.8 52.5253C74.8 57.303 66.59 60.3131 62.23 60.3131C58.41 60.3131 57.23 58.5051 57.23 57.1414C57.23 55.2323 58.31 53.4546 59.38 53.4546C60.04 53.4546 60.67 53.4546 60.67 54.0101C60.67 54.1414 60.67 54.303 60.67 54.4344C60.6854 54.829 60.8351 55.2063 61.0937 55.5025C61.3524 55.7988 61.7042 55.9959 62.09 56.0606C66.51 56.0606 70.09 54.3839 70.09 53.1818C70.09 52.1717 66.49 51.8081 63.04 50.7677C61.28 50.2323 59.33 49.4343 59.33 47.0707C59.33 40.6667 71.33 36.6263 75.27 36.6263C79.21 36.6263 79.09 38.3838 79.09 38.8889V39.0707Z" fill="white"/>
<path d="M100.93 53.3131C100.947 53.7029 100.882 54.0919 100.74 54.4546C99.95 56.0808 95.93 60.2828 91.61 60.2828C89.01 60.2828 87.27 59.1616 87.27 56.3939C87.27 52.8081 91.75 45.2828 93.38 42.4243C90.46 44.495 80.2 56.2424 78 59.2929C77.4986 59.7555 76.8649 60.0454 76.19 60.1212C75.61 60.1212 75.19 59.6667 74.95 59.6667C74.71 59.6667 74.61 59.6667 74.61 59.3737C74.6144 59.2172 74.6484 59.0629 74.71 58.9192C77.53 52.3333 81.13 44.2222 90.45 27.8283C91.8461 25.3422 93.3646 22.9284 95 20.596C95.497 20.069 96.104 19.6605 96.7769 19.4001C97.4498 19.1398 98.1716 19.0341 98.89 19.0909C99.26 19.0909 99.63 19.1414 99.63 20.101C99.6329 20.3918 99.5785 20.6802 99.47 20.9495C99.05 21.7778 89.34 36.4243 84.06 47.2121C87 43.6667 92.61 37.7374 96 37.7374C96.6514 37.7846 97.292 37.9311 97.9 38.1717C98.64 38.4647 98.79 39.1818 98.79 39.9697C98.79 41.3333 91.95 53.2121 91.95 55.303C91.95 56.0303 92.27 56.3737 92.87 56.3737C93.1112 56.36 93.3497 56.3159 93.58 56.2424C95.14 55.8081 99.19 51.6162 99.66 51.1919C99.8226 51.0503 100.026 50.9653 100.24 50.9495C100.378 50.9465 100.512 50.9973 100.615 51.0912C100.717 51.1852 100.78 51.3152 100.79 51.4546C100.886 52.0693 100.933 52.6908 100.93 53.3131Z" fill="white"/>
<path d="M111.48 54.4546C110.551 56.1529 109.212 57.5868 107.588 58.6233C105.964 59.6598 104.107 60.2654 102.19 60.3838C100.978 60.3377 99.8239 59.8482 98.9426 59.0064C98.0614 58.1646 97.5132 57.0279 97.4 55.8081C97.4 53.1515 103.19 44.697 103.19 44.2222C103.19 43.6162 102.11 43.0808 102.11 42.4748C102.11 42.0505 106.19 37.5253 108.45 37.5253C108.96 37.6297 109.425 37.8904 109.783 38.2718C110.141 38.6532 110.374 39.1367 110.45 39.6566C110.45 40.2121 104.95 49.8081 104.19 51.1313C103.56 52.202 102.19 54.1616 102.19 55.3839C102.19 56.1313 102.88 56.2929 103.54 56.2929C106.72 56.2929 110.17 50.9192 110.98 50.9192C111.79 50.9192 111.67 52.8384 111.67 53.3131C111.688 53.703 111.623 54.0922 111.48 54.4546ZM111.64 34.6869C111.429 34.7169 111.214 34.6971 111.012 34.6292C110.81 34.5613 110.626 34.447 110.475 34.2954C110.324 34.1437 110.21 33.9588 110.141 33.7551C110.073 33.5514 110.052 33.3345 110.08 33.1212C110.08 30.9899 112.19 28.596 114.35 28.596C114.555 28.573 114.762 28.5961 114.957 28.6634C115.152 28.7307 115.33 28.8406 115.478 28.9853C115.626 29.13 115.74 29.306 115.813 29.5006C115.886 29.6952 115.916 29.9036 115.9 30.1111C115.9 32.0808 113.64 34.6869 111.64 34.6869Z" fill="white"/>
<path d="M112.93 60.0101C112.353 60.0187 111.78 59.9086 111.246 59.6866C110.712 59.4646 110.228 59.1353 109.824 58.7187C109.42 58.3021 109.104 57.8069 108.895 57.2631C108.687 56.7194 108.59 56.1384 108.61 55.5556C108.61 45.8586 119.06 37.7576 123.95 37.7576C125.53 37.7576 126.4 38.5758 126.4 38.899V39.0606C126.694 39.0149 126.992 38.9947 127.29 39C127.658 38.9878 128.024 39.0537 128.365 39.1934C128.706 39.3331 129.014 39.5435 129.269 39.811C129.525 40.0785 129.722 40.3972 129.848 40.7464C129.973 41.0956 130.025 41.4676 130 41.8384C130 47.202 120.5 60.0101 112.93 60.0101ZM124.71 42.5758C124.19 42.5758 123.79 42.3131 123.79 41.2222C120.664 42.4708 117.94 44.5683 115.92 47.2828C113.66 50.2323 112.61 52.9697 112.58 54.5556C112.58 55.495 112.95 56.0505 113.66 56.0505C114.85 56.0505 117.98 54.4849 121.16 50.4445C124.05 46.7778 125.26 44.1414 125.26 43.0808C125.26 42.7374 125.13 42.5455 124.9 42.5455L124.71 42.5758Z" fill="white"/>
<path d="M44.68 70.5657C44.1774 70.2805 43.7623 69.8612 43.48 69.3535C43.1911 68.8064 43.04 68.1959 43.04 67.5758C43.04 66.9557 43.1911 66.3451 43.48 65.798C43.7562 65.2857 44.1728 64.8648 44.68 64.5859C45.195 64.2916 45.7784 64.1416 46.37 64.1515C46.9646 64.1427 47.551 64.2925 48.07 64.5859C48.5718 64.8686 48.9843 65.2888 49.26 65.798C49.5489 66.3451 49.7 66.9557 49.7 67.5758C49.7 68.1959 49.5489 68.8064 49.26 69.3535C48.9784 69.8583 48.5673 70.277 48.07 70.5657C47.5492 70.8542 46.964 71.0037 46.37 71C45.779 71.0052 45.1967 70.8555 44.68 70.5657ZM47.49 69.6364C47.8111 69.4313 48.0705 69.1414 48.24 68.798C48.4182 68.4161 48.5071 67.9979 48.5 67.5758C48.5062 67.1505 48.4173 66.7292 48.24 66.3434C48.0703 66.0029 47.8107 65.7162 47.49 65.5152C47.1524 65.3095 46.7642 65.2044 46.37 65.2121C45.9727 65.2042 45.5811 65.3092 45.24 65.5152C44.9193 65.7162 44.6597 66.0029 44.49 66.3434C44.3127 66.7292 44.2238 67.1505 44.23 67.5758C44.2229 67.9979 44.3118 68.4161 44.49 68.798C44.6595 69.1414 44.9189 69.4313 45.24 69.6364C45.5839 69.8345 45.9742 69.9357 46.37 69.9293C46.7627 69.9358 47.1498 69.8346 47.49 69.6364Z" fill="white"/>
<path d="M51.73 64.2424H54C54.4514 64.2326 54.8992 64.3258 55.31 64.5152C55.6671 64.6763 55.9696 64.9397 56.18 65.2727C56.3849 65.6169 56.489 66.0127 56.48 66.4141C56.4939 66.7989 56.3928 67.179 56.19 67.5051C55.9719 67.8315 55.6807 68.1015 55.34 68.2929L56.82 70.8485H55.52L54.2 68.5556H52.91V70.899H51.73V64.2424ZM54.1 67.5051C54.4241 67.5249 54.7442 67.4243 55 67.2222C55.1142 67.1189 55.2033 66.9905 55.2605 66.8469C55.3177 66.7033 55.3415 66.5483 55.33 66.394C55.3384 66.2429 55.3131 66.0919 55.256 65.952C55.1989 65.8121 55.1114 65.687 55 65.5859C54.7466 65.3784 54.4256 65.274 54.1 65.2929H52.91V67.5051H54.1Z" fill="white"/>
<path d="M59.94 70.5556C59.4347 70.2707 59.0162 69.8515 58.73 69.3434C58.4412 68.7999 58.29 68.1926 58.29 67.5758C58.29 66.9589 58.4412 66.3516 58.73 65.8081C59.0091 65.2954 59.4248 64.872 59.93 64.5859C60.4455 64.2929 61.0286 64.1431 61.62 64.1515C62.3044 64.1317 62.9772 64.3334 63.54 64.7273C64.0557 65.1131 64.4118 65.678 64.54 66.3131V66.3737L63.45 66.4647C63.3386 66.0866 63.1066 65.7563 62.79 65.5253C62.4476 65.2947 62.041 65.1814 61.63 65.202C61.236 65.1954 60.848 65.3004 60.51 65.5051C60.1889 65.7101 59.9295 66 59.76 66.3434C59.5771 66.7273 59.488 67.1499 59.5 67.5758C59.4891 68.0015 59.5782 68.4238 59.76 68.8081C59.9295 69.1515 60.1889 69.4414 60.51 69.6465C60.8576 69.8445 61.251 69.9456 61.65 69.9394C62.1243 69.9694 62.5912 69.8098 62.95 69.495C63.2849 69.1699 63.4881 68.7307 63.52 68.2626H61.05V67.2525H64.65V67.7879C64.6617 68.359 64.5347 68.9243 64.28 69.4343C64.0392 69.8989 63.6758 70.287 63.23 70.5556C62.741 70.8296 62.1892 70.9689 61.63 70.9596C61.0414 70.9759 60.4589 70.8366 59.94 70.5556Z" fill="white"/>
<path d="M68.28 64.2424H69.39L71.82 70.899H70.59L70.17 69.697H67.49L67.08 70.899H65.84L68.28 64.2424ZM69.81 68.6869L69 66.1515L68.9 65.4243L68.79 66.1515L67.84 68.6869H69.81Z" fill="white"/>
<path d="M73.57 64.2424H74.86L77.58 68.8788L77.64 69.1414V64.2424H78.81V70.899H77.55L74.83 66.2727V66.0101V70.899H73.57V64.2424Z" fill="white"/>
<path d="M81.07 64.2424H82.24V70.899H81.07V64.2424Z" fill="white"/>
<path d="M85.93 70.5657C85.4251 70.2848 85.0065 69.8689 84.72 69.3636C84.4151 68.8188 84.2597 68.2016 84.27 67.5758C84.2573 66.9497 84.4128 66.3318 84.72 65.7879C85.0062 65.2799 85.4247 64.8607 85.93 64.5758C86.4449 64.2915 87.0233 64.1455 87.61 64.1515C88.0946 64.1426 88.5755 64.239 89.02 64.4343C89.4128 64.6092 89.7565 64.88 90.02 65.2222C90.2863 65.5621 90.4712 65.9597 90.56 66.3839V66.4647L89.46 66.5455C89.3627 66.139 89.1252 65.7808 88.79 65.5354C88.4405 65.2931 88.0237 65.1693 87.6 65.1818C87.2027 65.1739 86.8111 65.2789 86.47 65.4849C86.1472 65.6849 85.8899 65.9765 85.73 66.3232C85.5529 66.7055 85.464 67.1234 85.47 67.5455C85.465 67.9674 85.5538 68.3851 85.73 68.7677C85.8995 69.1111 86.1589 69.401 86.48 69.6061C86.8264 69.8069 87.2207 69.9082 87.62 69.899C88.038 69.9152 88.4495 69.7908 88.79 69.5455C89.1215 69.2964 89.358 68.9398 89.46 68.5354L90.55 68.6263V68.697C90.412 69.3448 90.0593 69.9257 89.55 70.3434C88.9891 70.7512 88.3107 70.9607 87.62 70.9394C87.034 70.9669 86.4511 70.838 85.93 70.5657Z" fill="white"/>
<path d="M96.59 70.7071C96.2273 70.5424 95.9136 70.2847 95.68 69.9596C95.449 69.6292 95.3108 69.2417 95.28 68.8384L96.38 68.7374C96.3901 68.9157 96.436 69.0901 96.5151 69.2499C96.5942 69.4097 96.7048 69.5515 96.84 69.6667C97.1221 69.897 97.4776 70.0156 97.84 70C98.1638 70.0171 98.483 69.9168 98.74 69.7172C98.8565 69.6237 98.949 69.5034 99.0099 69.3663C99.0708 69.2292 99.0983 69.0793 99.09 68.9293C99.0993 68.7746 99.0692 68.6201 99.0027 68.4804C98.9362 68.3408 98.8354 68.2206 98.71 68.1313C98.3376 67.9064 97.9274 67.7523 97.5 67.6768C96.956 67.5736 96.4428 67.3455 96 67.0101C95.8306 66.8706 95.6961 66.6928 95.6075 66.4909C95.5188 66.2891 95.4786 66.069 95.49 65.8485C95.4827 65.529 95.5812 65.2161 95.77 64.9596C95.9689 64.6946 96.2349 64.4887 96.54 64.3637C96.8888 64.2188 97.2629 64.1467 97.64 64.1515C98.219 64.1213 98.7898 64.3004 99.25 64.6566C99.4498 64.8254 99.6138 65.0332 99.7323 65.2675C99.8509 65.5018 99.9215 65.7578 99.94 66.0202L98.94 66.0808C98.914 65.7856 98.7782 65.5113 98.56 65.3131C98.3288 65.155 98.0588 65.0646 97.7799 65.0521C97.501 65.0396 97.2241 65.1055 96.98 65.2424C96.8948 65.2933 96.8242 65.3657 96.7751 65.4525C96.726 65.5392 96.7001 65.6374 96.7 65.7374C96.6967 65.8599 96.729 65.9807 96.793 66.0849C96.857 66.189 96.9498 66.2719 97.06 66.3232C97.4496 66.5082 97.8589 66.6472 98.28 66.7374C98.828 66.8452 99.3424 67.0842 99.78 67.4344C99.9592 67.6063 100.099 67.8154 100.191 68.0473C100.282 68.2793 100.323 68.5285 100.31 68.7778C100.322 69.1886 100.21 69.5934 99.9884 69.9381C99.7668 70.2828 99.4464 70.5511 99.07 70.7071C98.6825 70.892 98.2585 70.9852 97.83 70.9798C97.4016 70.9842 96.9778 70.891 96.59 70.7071Z" fill="white"/>
<path d="M103.1 65.2929H101.44V64.2828H106V65.2929H104.33V70.899H103.1V65.2929Z" fill="white"/>
<path d="M108.73 70.5657C108.227 70.2805 107.812 69.8612 107.53 69.3535C107.248 68.8043 107.1 68.1946 107.1 67.5758C107.1 66.957 107.248 66.3472 107.53 65.798C107.806 65.2857 108.223 64.8648 108.73 64.5859C109.245 64.2916 109.828 64.1416 110.42 64.1515C111.015 64.1427 111.601 64.2925 112.12 64.5859C112.622 64.8686 113.034 65.2888 113.31 65.798C113.599 66.3451 113.75 66.9557 113.75 67.5758C113.75 68.1959 113.599 68.8064 113.31 69.3535C113.028 69.8583 112.617 70.277 112.12 70.5657C111.599 70.8542 111.014 71.0037 110.42 71C109.829 71.0052 109.247 70.8555 108.73 70.5657ZM111.54 69.6364C111.864 69.4347 112.124 69.1438 112.29 68.798C112.473 68.4177 112.562 67.9984 112.55 67.5758C112.561 67.15 112.472 66.7277 112.29 66.3434C112.122 66.0013 111.862 65.7141 111.54 65.5152C111.202 65.3095 110.814 65.2044 110.42 65.2121C110.023 65.2042 109.631 65.3092 109.29 65.5152C108.969 65.7162 108.71 66.0029 108.54 66.3434C108.363 66.7292 108.274 67.1505 108.28 67.5758C108.273 67.9979 108.362 68.4161 108.54 68.798C108.71 69.1414 108.969 69.4313 109.29 69.6364C109.634 69.8345 110.024 69.9357 110.42 69.9293C110.813 69.9358 111.2 69.8346 111.54 69.6364Z" fill="white"/>
<path d="M115.78 64.2424H118.07C118.521 64.2326 118.969 64.3258 119.38 64.5152C119.737 64.6763 120.04 64.9397 120.25 65.2727C120.455 65.6169 120.559 66.0127 120.55 66.4141C120.564 66.7989 120.463 67.179 120.26 67.5051C120.042 67.8315 119.751 68.1015 119.41 68.2929L120.89 70.8485H119.57L118.25 68.5051H117V70.8485H115.82L115.78 64.2424ZM118.15 67.5051C118.474 67.5249 118.794 67.4243 119.05 67.2222C119.164 67.1189 119.253 66.9905 119.311 66.8469C119.368 66.7033 119.392 66.5483 119.38 66.394C119.388 66.2429 119.363 66.0919 119.306 65.952C119.249 65.8121 119.161 65.687 119.05 65.5859C118.797 65.3776 118.476 65.273 118.15 65.2929H117V67.5051H118.15Z" fill="white"/>
<path d="M122.77 64.2424H126.93V65.2525H123.93V67.0101H126.66V68.0202H124V69.7778H127V70.7879H122.73L122.77 64.2424Z" fill="white"/>
<path d="M44.91 5.8384C44.885 5.81388 44.8551 5.79492 44.8224 5.78274C44.7897 5.77057 44.7548 5.76544 44.72 5.76769H44.57C44.5 5.46466 44.43 5.17173 44.35 4.8788C44.3354 4.8126 44.296 4.75469 44.24 4.71718V4.51516C44.24 3.50506 42.45 4.51516 42.49 5.36365C42.49 5.53537 42.49 5.69698 42.49 5.8586C42.71 10.495 42.57 14.7273 44.61 19.0808C44.6471 19.1754 44.7057 19.2597 44.7811 19.3271C44.8565 19.3945 44.9466 19.4429 45.044 19.4685C45.1414 19.4941 45.2435 19.4961 45.3418 19.4744C45.4402 19.4526 45.532 19.4078 45.61 19.3434C45.6306 19.397 45.6574 19.4479 45.69 19.495C46.1 19.9192 46.17 20.1111 46.69 20.1515H46.79L48.03 20.8586C48.68 21.2424 49.45 20.0909 49.5 19.5859C50 14.6061 47.57 9.9091 44.91 5.8384Z" fill="white"/>
<path d="M61.4 2.21213C58.56 3.27274 56.58 5.92931 54.91 8.35355C53.0071 11.0048 51.4947 13.9206 50.42 17.0101C50.32 17.3535 50.63 17.3737 50.92 17.2323C51.09 17.8788 52.6 17.4243 52.99 16.5657C53.334 15.8506 53.718 15.1559 54.14 14.4849C54.47 14.7273 55.34 14.4849 55.68 13.9899C57.2497 12.0701 58.5921 9.9717 59.68 7.73739C60.1 7.16163 60.52 6.59597 60.95 6.03031C61.38 5.46466 61.28 5.13132 60.95 5.02021C61.31 4.30304 61.65 3.57577 61.95 2.82829C62.18 2.29294 61.89 2.02021 61.4 2.21213ZM60.16 3.96971C59.87 4.47476 59.57 4.97981 59.25 5.44446C59.0189 5.50665 58.8062 5.62449 58.63 5.78789C57.4506 6.86872 56.3819 8.06668 55.44 9.36365C55.18 9.66668 54.92 9.95961 54.67 10.2626C56.11 7.68688 57.85 5.30304 60.16 3.96971Z" fill="white"/>
<path d="M90.47 11.9293C85.05 9.8384 77.73 10.3535 72.13 11.3839C65.95 12.5051 60.34 16.4344 55.13 19.9394C54.992 19.9721 54.8625 20.0341 54.75 20.1212L54.23 20.5455C53.58 21.0606 53.23 22.4849 54.49 22C54.94 21.8384 55.38 21.6465 55.81 21.4546C55.7857 21.6246 55.8163 21.7981 55.8974 21.9491C55.9784 22.1002 56.1056 22.2208 56.26 22.2929C61.79 25.3232 69.03 23.101 74.74 21.6869C80.45 20.2727 86.74 18.3333 90.48 13.394C90.79 13.0101 91.08 12.1212 90.47 11.9293ZM86.25 15.1515L85.31 15.2525C85.8017 14.7905 86.1256 14.1751 86.23 13.5051C86.77 13.6162 87.3 13.7475 87.8 13.899C87.3199 14.3607 86.8013 14.7798 86.25 15.1515ZM81.72 13.9899C81.9605 13.6867 82.1497 13.3454 82.28 12.9798C83.07 13.0404 83.86 13.1212 84.61 13.2323C83.7 13.3838 82.73 13.6566 81.72 13.9495V13.9899ZM73.65 13.3232C72.056 13.7186 70.4999 14.2561 69 14.9293C68 15.1515 67 15.4041 66 15.6768C67.2787 15.0093 68.6183 14.468 70 14.0606C71.1998 13.7263 72.4187 13.4666 73.65 13.2828V13.3232ZM60.49 20.394C62.05 20.0606 63.6 19.7172 65.15 19.3839C65.8546 19.4988 66.5664 19.5629 67.28 19.5758C67.0301 19.9261 66.9227 20.36 66.98 20.7879C64.8079 21.0598 62.6042 20.9055 60.49 20.3333V20.394Z" fill="white"/>
<path d="M45.06 34.495C45.3212 34.0903 45.5423 33.6606 45.72 33.2121C45.94 32.7374 46.16 32.2727 46.36 31.7879C46.7311 30.932 47.1518 30.0989 47.62 29.2929C48.5512 27.6807 49.6327 26.162 50.85 24.7576C53.1426 21.9886 55.7355 19.4881 58.58 17.303C61.3462 15.2037 64.4064 13.5322 67.66 12.3434C70.9419 11.1602 74.3955 10.5355 77.88 10.495C81.9375 10.4746 85.9553 11.3035 89.68 12.9293C90.15 13.1313 90.61 13.3535 91.06 13.5859L91.13 13.0202C89.5045 14.9416 87.736 16.7347 85.84 18.3839C84.0373 19.9087 82.0138 21.1453 79.84 22.0505C78.6255 22.5313 77.3749 22.913 76.1 23.1919C74.5215 23.5051 72.925 23.7176 71.32 23.8283C68.0798 24.1719 64.8109 24.1312 61.58 23.7071C60.1509 23.5262 58.7415 23.2117 57.37 22.7677C56.1552 22.3957 55.0145 21.811 54 21.0404C53.71 20.798 53.09 21.4546 53.36 21.6768C54.2693 22.3696 55.282 22.9117 56.36 23.2828C56.96 23.5051 57.57 23.7071 58.19 23.8687C58.81 24.0303 59.37 24.101 59.96 24.2121C63.2221 24.7771 66.5422 24.9197 69.84 24.6364C72.8967 24.509 75.9231 23.9723 78.84 23.0404C81.1558 22.2057 83.326 21.0056 85.27 19.4849C87.5286 17.6682 89.6113 15.6388 91.49 13.4243C91.61 13.2929 91.8 12.9899 91.56 12.8687C87.8022 10.9511 83.6774 9.8793 79.47 9.72728C75.8907 9.62839 72.3205 10.1406 68.91 11.2424C65.5532 12.3402 62.3755 13.9332 59.48 15.9697C56.5364 18.0908 53.8511 20.5557 51.48 23.3131C48.8308 26.1228 46.7667 29.4408 45.41 33.0707C45.2693 33.5497 45.0817 34.0132 44.85 34.4546C44.73 34.6566 45.02 34.6263 45.11 34.4546L45.06 34.495Z" fill="white"/>
<path d="M45 34.4748C46.2925 32.3023 47.3264 29.9832 48.08 27.5657C48.8637 25.2261 49.4328 22.8186 49.78 20.3737C50.35 16.3333 50.34 11.9192 48.21 8.34345C46.7414 6.14232 44.8382 4.27155 42.62 2.8485C42.34 2.64648 41.88 3.10102 41.97 3.40405C42.97 6.8384 41.32 10.4041 42.23 13.8485C42.3896 14.3832 42.5765 14.9091 42.79 15.4243C42.95 15.8485 43.12 16.2525 43.31 16.6566C43.7922 17.7065 44.4037 18.6907 45.13 19.5859C46.1843 20.8476 47.5073 21.8524 49 22.5253C49.3 22.6566 49.84 22 49.49 21.8384C47.1405 20.7015 45.2535 18.7776 44.15 16.3939C43.7488 15.5645 43.3982 14.711 43.1 13.8384C42.6613 12.1917 42.5829 10.4683 42.87 8.78789C43.2093 6.85388 43.1514 4.87008 42.7 2.95961L42 3.46466C43.8992 4.7248 45.5872 6.28314 47 8.08082C48.1399 9.704 48.8835 11.5765 49.17 13.5455C49.43 15.5977 49.43 17.675 49.17 19.7273C48.908 22.0844 48.4395 24.4134 47.77 26.6869C46.9602 29.3334 45.9746 31.9218 44.82 34.4344C44.82 34.5152 44.89 34.5051 44.93 34.4344L45 34.4748Z" fill="white"/>
<path d="M49.24 22.1616C49.3369 20.4459 49.6459 18.7493 50.16 17.1111C50.7031 15.4569 51.4383 13.8735 52.35 12.394C54.2557 9.37296 56.5154 6.5953 59.08 4.12122C60.38 2.82829 61.73 1.59597 63.08 0.393949H62.65C62.6496 2.29021 62.3422 4.17365 61.74 5.96971C61.0884 7.83987 60.117 9.58006 58.87 11.1111C57.709 12.5211 56.3633 13.7649 54.87 14.8081C53.5355 15.6922 52.2777 16.6891 51.11 17.7879C50.446 18.4232 49.8798 19.1552 49.43 19.9596C49.2059 20.297 49.0537 20.6777 48.9831 21.0777C48.9126 21.4776 48.9251 21.888 49.02 22.2828C49.07 22.4344 49.29 22.2222 49.31 22.1414C49.4236 21.3946 49.6566 20.6713 50 20C50.3844 19.3198 50.8739 18.706 51.45 18.1818C52.5976 17.102 53.8281 16.1157 55.13 15.2323C58.2596 13.0311 60.6909 9.96122 62.13 6.39395C62.8839 4.40147 63.2637 2.28454 63.25 0.151525C63.25 -0.131304 62.92 0.0505147 62.82 0.151525C60.1862 2.4113 57.7258 4.86952 55.46 7.50506C53.0871 10.197 51.2169 13.301 49.94 16.6667C49.2637 18.4342 48.9935 20.3338 49.15 22.2222C49.15 22.2828 49.24 22.2222 49.24 22.2222V22.1616Z" fill="white"/>
<path d="M53.83 21.5354C54.9193 21.1745 55.9791 20.7287 57 20.202C58.1211 19.6989 59.2696 19.2605 60.44 18.8889C62.81 18.1313 65.22 17.495 67.64 16.8687C72.5059 15.7119 77.4342 14.8417 82.4 14.2626C83.82 14.0808 85.24 13.9293 86.67 13.8081C88.0414 13.7586 89.4031 13.5554 90.73 13.202C90.73 13.202 90.87 13.0606 90.73 13.0707C89.48 13.2323 88.24 13.4142 86.99 13.5253C85.74 13.6364 84.48 13.7475 83.23 13.899C80.78 14.2121 78.33 14.5455 75.88 14.9091C70.9329 15.724 66.0478 16.8851 61.26 18.3839C59.9827 18.7639 58.7274 19.2158 57.5 19.7374C56.28 20.2828 55.08 20.8687 53.85 21.4041C53.8 21.4041 53.74 21.5556 53.85 21.5354H53.83Z" fill="white"/>
<path d="M53.85 21.2828C54.8634 20.8517 55.8288 20.3133 56.73 19.6768C57.6972 19.0356 58.6987 18.4488 59.73 17.9192C61.9875 16.8197 64.3242 15.8945 66.72 15.1515C67.91 14.7677 69.15 14.5152 70.37 14.2424C71.59 13.9697 72.83 13.7475 74.06 13.5455C76.56 13.1212 79.0767 12.8249 81.61 12.6566C83.0271 12.5437 84.4491 12.5066 85.87 12.5455C86.6 12.5455 87.33 12.6263 88.06 12.7071C88.79 12.7879 89.54 12.9293 90.28 12.9697C90.28 12.9697 90.4 12.8788 90.35 12.8586C89.7506 12.6759 89.1339 12.5574 88.51 12.5051C87.86 12.4243 87.2 12.3636 86.51 12.3333C85.2179 12.2525 83.9221 12.2525 82.63 12.3333C80.12 12.4849 77.63 12.7475 75.12 13.1212C72.61 13.495 70.12 14.0202 67.63 14.6465C66.4396 14.9715 65.2678 15.3627 64.12 15.8182C62.95 16.2626 61.79 16.7475 60.65 17.2828C59.4592 17.8228 58.3094 18.4508 57.21 19.1616C56.09 19.8889 54.98 20.6263 53.81 21.2626C53.81 21.2626 53.81 21.3333 53.81 21.3131L53.85 21.2828Z" fill="white"/>
<path d="M54.26 20.9697C55.26 20.3131 56.14 19.596 57.08 18.9495C58.02 18.303 58.94 17.6566 59.9 17.0505C61.8481 15.7968 63.9359 14.7796 66.12 14.0202C70.8189 12.4254 75.7538 11.6567 80.71 11.7475C82.04 11.7475 83.38 11.8283 84.71 11.9091C86.04 11.9899 87.41 12.2323 88.76 12.4041C88.76 12.4041 88.89 12.3131 88.83 12.2929C87.7082 11.9097 86.5341 11.7053 85.35 11.6869C84.14 11.596 82.92 11.5657 81.7 11.5152C79.2173 11.4175 76.7308 11.5426 74.27 11.8889C71.7872 12.2591 69.3365 12.8231 66.94 13.5758C64.7405 14.2565 62.629 15.1991 60.65 16.3839C59.56 17.0303 58.51 17.7374 57.48 18.4748C56.45 19.2121 55.28 20.0606 54.25 20.9293L54.26 20.9697Z" fill="white"/>
<path d="M53.75 21.3737C54.9557 21.4411 56.165 21.387 57.36 21.2121C58.63 21.0505 59.9 20.8182 61.15 20.5455C63.66 20 66.15 19.3434 68.63 18.798C71.11 18.2525 73.91 17.7071 76.55 17.1414C77.91 16.8384 79.26 16.5354 80.62 16.2121C81.98 15.8889 83.06 15.5758 84.29 15.3232C85.52 15.0707 86.77 14.8788 88 14.6061C89.1824 14.4192 90.3191 14.008 91.35 13.394C91.44 13.3333 91.48 13.1414 91.35 13.202C90.86 13.4041 90.35 13.6162 89.88 13.7879C89.41 13.9596 88.88 14.101 88.3 14.2222C87.21 14.4748 86.11 14.6465 85.02 14.8586C83.93 15.0707 82.67 15.4041 81.5 15.6869C80.33 15.9697 78.87 16.3131 77.5 16.6061C74.88 17.1818 72.25 17.7071 69.63 18.3131C67.17 18.8788 64.71 19.4849 62.25 20.0606C60.86 20.3839 59.47 20.6869 58.07 20.9192C56.67 21.1515 55.19 21.2727 53.74 21.3839L53.75 21.3737Z" fill="white"/>
<path d="M90.92 13.5758C89.8852 13.9049 88.902 14.3811 88 14.9899C86.9964 15.6246 85.9468 16.1818 84.86 16.6566C82.48 17.6667 79.99 18.3535 77.53 19.0909C72.7694 20.6642 67.8073 21.5285 62.8 21.6566C61.4072 21.6465 60.0169 21.5351 58.64 21.3232C57.94 21.2222 57.24 21.1212 56.54 21.0606C55.7919 20.9544 55.0315 20.9749 54.29 21.1212C54.22 21.1212 54.01 21.3636 54.16 21.394C54.7761 21.4849 55.3974 21.5355 56.02 21.5455C56.67 21.596 57.33 21.6768 58.02 21.7576C59.27 21.9091 60.5 22.0505 61.76 22.0808C64.2534 22.1163 66.7445 21.9134 69.2 21.4748C71.6628 21.0465 74.0974 20.4663 76.49 19.7374C77.71 19.3636 78.92 18.9495 80.13 18.5657C81.34 18.1818 82.54 17.7879 83.72 17.3232C84.989 16.8506 86.2083 16.2517 87.36 15.5354C88.4639 14.7298 89.6718 14.0807 90.95 13.6061L90.92 13.5758Z" fill="white"/>
<path d="M54.56 21.7778C55.8451 21.8485 57.1207 22.0412 58.37 22.3535C59.6341 22.5873 60.9151 22.7157 62.2 22.7374C64.8474 22.8502 67.4992 22.7962 70.14 22.5758C74.975 22.1947 79.6866 20.8453 84 18.6061C85.1095 18.0157 86.1726 17.3403 87.18 16.5859C87.65 16.2121 88.11 15.8283 88.57 15.4344C89.0901 15.0099 89.5689 14.5364 90 14.0202C90.06 13.9394 90 13.8687 89.91 13.9293C89.4662 14.2715 89.0421 14.6391 88.64 15.0303C88.22 15.4041 87.78 15.7677 87.34 16.1212C86.4712 16.8131 85.5519 17.4377 84.59 17.9899C82.4667 19.1788 80.2153 20.1176 77.88 20.7879C75.5947 21.4716 73.2512 21.9383 70.88 22.1818C69.67 22.3131 68.46 22.3838 67.24 22.4344C66.02 22.4849 64.52 22.5556 63.15 22.5354C61.6507 22.5563 60.1522 22.4515 58.67 22.2222C57.3268 21.885 55.943 21.7422 54.56 21.798V21.7778Z" fill="white"/>
<path d="M50.22 18.0909C50.77 16.8687 51.33 15.6465 51.99 14.4849C52.6481 13.3233 53.3657 12.1972 54.14 11.1111C55.67 9.03032 57.38 7.07072 59.05 5.05052C60.05 3.78789 61.22 2.60607 62.32 1.39395C62.44 1.26264 62.32 1.13133 62.19 1.27274C61.19 2.34345 60.19 3.38385 59.28 4.50506C58.37 5.62628 57.51 6.61617 56.64 7.68688C54.943 9.67156 53.4143 11.7969 52.07 14.0404C51.3031 15.316 50.6728 16.6704 50.19 18.0808L50.22 18.0909Z" fill="white"/>
<path d="M62.34 0.505063C62.2597 2.07437 61.818 3.60311 61.05 4.96971C60.7 5.65658 60.32 6.30304 59.95 6.98991C59.5935 7.6412 59.196 8.26875 58.76 8.8687C56.94 11.2626 54.42 12.9899 52.48 15.2828C51.9143 15.9744 51.3995 16.707 50.94 17.4748C50.47 18.2323 49.94 18.9697 49.53 19.7475C49.48 19.8283 49.59 19.8384 49.64 19.7475C50.1425 19.0986 50.5971 18.4132 51 17.697C51.4223 16.9957 51.8865 16.321 52.39 15.6768C53.389 14.469 54.4789 13.3411 55.65 12.303C56.7671 11.3179 57.8007 10.24 58.74 9.08082C59.6064 7.86926 60.3628 6.58121 61 5.23233C61.8822 3.80811 62.3564 2.16482 62.37 0.48486L62.34 0.505063Z" fill="white"/>
<path d="M62.77 0.888901C62.62 0.828295 62.42 1.05052 62.32 1.15153C62.0185 1.4666 61.7411 1.80426 61.49 2.16163C60.72 3.17173 60.02 4.23233 59.32 5.29294C58.75 6.17173 58.19 7.07072 57.6 7.94951C56.5 9.62627 55.21 11.1818 54.04 12.8182C53.2924 13.8294 52.6109 14.8889 52 15.9899C51.38 17.1515 50.74 18.3131 50.21 19.5152C50.21 19.5758 50.21 19.5657 50.28 19.5152C50.8703 18.5803 51.4013 17.6087 51.87 16.6061C52.3862 15.5924 52.9674 14.6138 53.61 13.6768C54.87 11.8384 56.22 10.0606 57.52 8.25254C58.03 7.53537 58.52 6.77779 58.95 6.04042C59.63 5.03031 60.32 3.9293 61.04 2.899C61.37 2.42425 61.71 1.95961 62.04 1.51516C62.16 1.36365 62.52 0.848497 62.75 0.899002L62.77 0.888901Z" fill="white"/>
<path d="M43.1 3.8889C43.4946 5.06576 43.7661 6.28115 43.91 7.51516C44.06 8.72729 44.1 9.95961 44.21 11.1818C44.2877 13.5863 44.958 15.9332 46.16 18.0101C46.5419 18.5824 46.9559 19.1321 47.4 19.6566C47.85 20.2222 48.23 20.8182 48.65 21.394C48.65 21.394 48.74 21.394 48.73 21.3333C48.4652 20.7947 48.1288 20.2951 47.73 19.8485C47.34 19.3434 46.93 18.8384 46.56 18.3535C45.8447 17.3358 45.3162 16.1965 45 14.9899C44.4666 12.5946 44.1321 10.1586 44 7.70708C43.8915 6.38716 43.5916 5.09049 43.11 3.8586L43.1 3.8889Z" fill="white"/>
<path d="M43.31 4.04042C44.0763 4.84547 44.6988 5.77844 45.15 6.79799C45.4007 7.27573 45.6847 7.73481 46 8.17173C46.35 8.66668 46.72 9.18183 47 9.66668C47.703 10.7895 48.1378 12.0621 48.27 13.3839C48.3849 14.7544 48.415 16.1308 48.36 17.5051C48.36 18.2626 48.36 19.0404 48.36 19.798C48.36 20.1818 48.36 20.5657 48.36 20.9596C48.3502 21.3255 48.3804 21.6913 48.45 22.0505C48.45 22.1515 48.63 22.0505 48.64 21.9495C48.7296 21.2555 48.7296 20.5526 48.64 19.8586C48.64 19.2121 48.56 18.5556 48.53 17.899C48.53 16.495 48.53 15.0909 48.43 13.697C48.353 12.4171 48.0016 11.1695 47.4 10.0404C46.8 9.03031 45.98 8.08082 45.4 7.01011C44.9148 5.88965 44.2107 4.8796 43.33 4.04042H43.31Z" fill="white"/>
<path d="M43.21 3.67678C43.43 3.80809 43.57 4.24244 43.67 4.46466C43.85 4.8586 44.02 5.26264 44.18 5.66668C44.62 6.67678 45.18 7.74749 45.6 8.79799C45.9 9.45456 46.18 10.1111 46.44 10.8182C46.6719 11.4741 46.8426 12.1504 46.95 12.8384C47.21 14.2121 47.4 15.596 47.63 16.9697C47.75 17.7273 47.88 18.4748 47.99 19.2323C48.0528 20.0234 48.1664 20.8096 48.33 21.5859C48.33 21.6465 48.44 21.5859 48.44 21.5152C48.4635 20.736 48.3998 19.9566 48.25 19.1919C48.15 18.5051 48.04 17.8283 47.92 17.1717C47.69 15.8182 47.52 14.4546 47.25 13.1313C47.108 12.4491 46.9311 11.7748 46.72 11.1111C46.4805 10.4228 46.2034 9.74832 45.89 9.09092C45.4 7.97981 44.81 6.9192 44.33 5.80809C44.13 5.35355 43.94 4.8889 43.72 4.43436C43.62 4.23234 43.47 3.81819 43.23 3.73739L43.21 3.67678Z" fill="white"/>
<path d="M43.1 3.36365C43.49 4.49496 43.88 5.61617 44.19 6.76769C44.5 7.9192 44.8 9.16163 45.06 10.3636C45.58 12.798 46.06 15.2525 46.73 17.6364C47.0245 19.0011 47.5308 20.3102 48.23 21.5152C48.23 21.5152 48.34 21.5152 48.34 21.4344C48.0222 20.2291 47.604 19.0532 47.09 17.9192C46.73 16.7374 46.4 15.5354 46.09 14.3333C45.52 11.9293 45.03 9.51516 44.38 7.13132C44.0649 5.833 43.6366 4.56542 43.1 3.34345V3.36365Z" fill="white"/>
</g>
<defs>
<clipPath id="clip0_4_382">
<rect width="130" height="71" fill="white"/>
</clipPath>
</defs>
</svg>
